<svg width="242" height="216" viewBox="0 0 242 216" fill="none" xmlns="http://www.w3.org/2000/svg">
<rect x="162.294" y="9" width="70" height="90" transform="rotate(15 162.294 9)" fill="#F3F5DD"/>
<rect x="165.811" y="14.9002" width="60.0474" height="44.7127" transform="rotate(15 165.811 14.9002)" fill="#BD3817"/>
<path d="M162.294 9L139 95.9333" stroke="#220902" stroke-width="2" stroke-linecap="round"/>
<path d="M229.908 27.1173L206.615 114.051" stroke="#220902" stroke-width="2" stroke-linecap="round"/>
<path d="M162.294 9L229.909 27.1173" stroke="#220902" stroke-width="2" stroke-linecap="round"/>
<path d="M165.829 15.1237L223.785 30.6529" stroke="#220902" stroke-width="2" stroke-linecap="round"/>
<path d="M150.3 73.0793L208.256 88.6084" stroke="#220902" stroke-width="2" stroke-linecap="round"/>
<path d="M165.829 15.1237L150.3 73.0793" stroke="#220902" stroke-width="2" stroke-linecap="round"/>
<path d="M223.785 30.6529L208.256 88.6084" stroke="#220902" stroke-width="2" stroke-linecap="round"/>
<path d="M139 95.9333L206.615 114.051" stroke="#220902" stroke-width="2" stroke-linecap="round"/>
<rect x="173.294" y="63" width="70" height="90" transform="rotate(15 173.294 63)" fill="#F3F5DD"/>
<rect x="176.573" y="69" width="60.0474" height="59.9346" transform="rotate(15 176.573 69)" fill="#63160C"/>
<path d="M173.294 63L150 149.933" stroke="#220902" stroke-width="2" stroke-linecap="round"/>
<path d="M240.908 81.1173L217.615 168.051" stroke="#220902" stroke-width="2" stroke-linecap="round"/>
<path d="M173.294 63L240.908 81.1173" stroke="#220902" stroke-width="2" stroke-linecap="round"/>
<path d="M176.829 69.1237L234.785 84.6529" stroke="#220902" stroke-width="2" stroke-linecap="round"/>
<path d="M161.3 127.079L219.256 142.608" stroke="#220902" stroke-width="2" stroke-linecap="round"/>
<path d="M176.829 69.1237L161.3 127.079" stroke="#220902" stroke-width="2" stroke-linecap="round"/>
<path d="M234.785 84.6529L219.256 142.608" stroke="#220902" stroke-width="2" stroke-linecap="round"/>
<path d="M150 149.933L217.615 168.051" stroke="#220902" stroke-width="2" stroke-linecap="round"/>
<rect x="14" y="27.1173" width="70" height="90" transform="rotate(-15 14 27.1173)" fill="#F3F5DD"/>
<rect x="21" y="31.5414" width="60.0474" height="59.9346" transform="rotate(-15 21 31.5414)" fill="#63160C"/>
<path d="M82.6147 8.99997L105.908 95.9333" stroke="#220902" stroke-width="2" stroke-linecap="round"/>
<path d="M14.9999 27.1173L38.2936 114.051" stroke="#220902" stroke-width="2" stroke-linecap="round"/>
<path d="M82.6147 8.99997L14.9999 27.1173" stroke="#220902" stroke-width="2" stroke-linecap="round"/>
<path d="M79.0791 15.1237L21.1236 30.6529" stroke="#220902" stroke-width="2" stroke-linecap="round"/>
<path d="M94.6083 73.0793L36.6527 88.6084" stroke="#220902" stroke-width="2" stroke-linecap="round"/>
<path d="M79.0791 15.1237L94.6082 73.0793" stroke="#220902" stroke-width="2" stroke-linecap="round"/>
<path d="M21.1237 30.6528L36.6528 88.6084" stroke="#220902" stroke-width="2" stroke-linecap="round"/>
<path d="M105.908 95.9333L38.2936 114.051" stroke="#220902" stroke-width="2" stroke-linecap="round"/>
<rect x="0.999878" y="85.1173" width="70" height="90" transform="rotate(-15 0.999878 85.1173)" fill="#F3F5DD"/>
<rect x="6" y="88.5414" width="60.0474" height="59.9346" transform="rotate(-15 6 88.5414)" fill="#BD3817"/>
<path d="M0.999878 85.1173L24.2936 172.051" stroke="#220902" stroke-width="2" stroke-linecap="round"/>
<path d="M68.6146 67L91.9083 153.933" stroke="#220902" stroke-width="2" stroke-linecap="round"/>
<path d="M0.999878 85.1173L68.6147 67" stroke="#220902" stroke-width="2" stroke-linecap="round"/>
<path d="M7.12354 88.6528L65.0791 73.1237" stroke="#220902" stroke-width="2" stroke-linecap="round"/>
<path d="M22.6527 146.608L80.6083 131.079" stroke="#220902" stroke-width="2" stroke-linecap="round"/>
<path d="M7.12354 88.6528L22.6527 146.608" stroke="#220902" stroke-width="2" stroke-linecap="round"/>
<path d="M65.0791 73.1237L80.6082 131.079" stroke="#220902" stroke-width="2" stroke-linecap="round"/>
<path d="M24.2936 172.051L91.9084 153.933" stroke="#220902" stroke-width="2" stroke-linecap="round"/>
<path d="M199.734 183.934H45.7344L44.7344 130.934L50.7344 113.934V49.9338L57.2344 46.4338H189.234L194.734 48.1585V112.934L199.734 124.934V183.934Z" fill="#F3F5DD"/>
<path d="M45.2344 182.434V143.934H200.734V180.934L196.234 185.434H50.2344L45.2344 182.434Z" fill="#220902"/>
<path d="M187.234 162.934H58.7344L44.7344 213.934H200.734L187.234 162.934Z" fill="#F3F5DD"/>
<rect x="157.734" y="97.9338" width="11" height="11" rx="5" fill="#BD3817"/>
<circle cx="75.2344" cy="96.4338" r="11.5" fill="#63160C"/>
<path d="M176.734 38.9338L191.234 46.9338H55.2344L70.7344 38.9338H138.234L145.234 33.9338H168.734L176.734 38.9338Z" fill="#220902"/>
<ellipse cx="123.734" cy="79.9338" rx="24" ry="27" fill="#220902"/>
<circle cx="123.734" cy="82.9338" r="25" fill="#F3F5DD"/>
<circle cx="123.734" cy="82.9338" r="19" fill="#220902"/>
<rect x="157.734" y="54.9338" width="29" height="29" rx="5" fill="#220902"/>
<path d="M166.734 60.4338H177.734C179.667 60.4338 181.234 62.0008 181.234 63.9338V74.9338C181.234 76.8668 179.667 78.4338 177.734 78.4338H166.734C164.801 78.4338 163.234 76.8668 163.234 74.9338V63.9338C163.234 62.0008 164.801 60.4338 166.734 60.4338Z" stroke="black" stroke-width="3"/>
<path d="M161.734 63.9338C161.734 61.1724 163.973 58.9338 166.734 58.9338H177.734C180.496 58.9338 182.734 61.1724 182.734 63.9338V74.9338C182.734 77.6952 180.496 79.9338 177.734 79.9338H166.734C163.973 79.9338 161.734 77.6952 161.734 74.9338V63.9338Z" fill="#F3F5DD"/>
<path d="M66.7344 195.934L73.7344 162.934H170.734L178.234 195.934H66.7344Z" fill="#F4AC36"/>
<path d="M109.734 135.934L112.484 114.934H114.734V135.934H109.734Z" fill="#F4AC36"/>
<path d="M136.734 135.934L133.984 114.934H131.734V135.934H136.734Z" fill="#63160C"/>
<rect x="112.734" y="137.934" width="33" height="7" transform="rotate(-90 112.734 137.934)" fill="#F4AC36"/>
<rect x="119.734" y="137.934" width="33" height="7" transform="rotate(-90 119.734 137.934)" fill="#BD3817"/>
<rect x="126.734" y="137.934" width="33" height="7" transform="rotate(-90 126.734 137.934)" fill="#63160C"/>
<path d="M118.734 135.934L119.834 114.934H120.734V135.934H118.734Z" fill="#BD3817"/>
<path d="M127.734 135.934L126.634 114.934H125.734V135.934H127.734Z" fill="#BD3817"/>
<rect x="109.734" y="144.934" width="9" height="9" transform="rotate(-90 109.734 144.934)" fill="#F4AC36"/>
<rect x="118.734" y="144.934" width="9" height="9" transform="rotate(-90 118.734 144.934)" fill="#BD3817"/>
<rect x="127.734" y="144.934" width="9" height="9" transform="rotate(-90 127.734 144.934)" fill="#63160C"/>
<rect x="167.734" y="88.9338" width="20" height="9" rx="4.5" fill="#F4AC36"/>
<circle cx="75.2344" cy="96.4338" r="10" stroke="black" stroke-width="3"/>
<path d="M146.734 76.9338C146.734 63.6789 136.437 52.9338 123.734 52.9338C111.032 52.9338 100.734 63.6789 100.734 76.9338" stroke="black" stroke-width="3" stroke-linecap="round"/>
<rect x="169.234" y="90.4338" width="17" height="6" rx="3" stroke="black" stroke-width="3"/>
<path d="M200.734 131.934L200.281 179.981C200.255 182.724 198.024 184.934 195.281 184.934H192.734" stroke="black" stroke-width="3" stroke-linecap="round"/>
<path d="M195.145 113.934H50.3269L44.9023 130.366C43.8344 133.601 46.2436 136.934 49.6503 136.934H195.819C199.226 136.934 201.635 133.602 200.567 130.367L195.145 113.934Z" stroke="black" stroke-width="3"/>
<path d="M198.859 136.934H46.6094C43.6834 139.906 45.7891 144.934 49.96 144.934H195.509C199.68 144.934 201.785 139.906 198.859 136.934Z" stroke="black" stroke-width="3"/>
<path d="M44.7344 131.934L45.1877 179.981C45.2135 182.724 47.4444 184.934 50.1874 184.934H52.7344" stroke="black" stroke-width="3" stroke-linecap="round"/>
<rect x="53.2344" y="151.434" width="139" height="11" rx="3.5" stroke="black" stroke-width="3"/>
<path d="M58.7344 163.934L45.2344 213.934H200.234L187.234 163.934" stroke="black" stroke-width="3" stroke-linecap="round"/>
<path d="M73.8066 163.934L66.7344 195.934H177.734L170.703 163.934" stroke="black" stroke-width="3" stroke-linecap="round"/>
<path d="M50.7344 112.934V51.9338C50.7344 49.1724 52.973 46.9338 55.7344 46.9338L189.734 46.9338C192.496 46.9338 194.734 49.1724 194.734 51.9338V112.934" stroke="black" stroke-width="3" stroke-linecap="round"/>
<path d="M55.2344 46.9338L62.2707 42.556C66.0758 40.1885 70.4678 38.9338 74.9492 38.9338H173.005C178.707 38.9338 184.222 40.9636 188.563 44.6598L191.234 46.9338" stroke="black" stroke-width="3" stroke-linecap="round"/>
<path d="M177.734 38.9338V38.9338C174.533 35.7323 170.191 33.9338 165.663 33.9338H149.805C145.278 33.9338 140.936 35.7323 137.734 38.9338V38.9338" stroke="black" stroke-width="3" stroke-linecap="round"/>
<rect x="158.234" y="55.4338" width="28" height="28" rx="3.5" stroke="black" stroke-width="3"/>
<rect x="159.234" y="99.4338" width="8" height="8" rx="3.5" stroke="black" stroke-width="3"/>
<circle cx="123.734" cy="82.9338" r="23.5" stroke="black" stroke-width="3"/>
<circle cx="123.734" cy="82.9338" r="17.5" stroke="black" stroke-width="3"/>
<path d="M132.527 85.146C133.237 79.6689 129.372 74.6536 123.895 73.9441" stroke="black" stroke-width="3" stroke-linecap="round"/>
<path d="M113.942 80.7216C113.232 86.1987 117.097 91.2139 122.574 91.9234" stroke="black" stroke-width="3" stroke-linecap="round"/>
<path d="M166.734 60.4338H177.734C179.667 60.4338 181.234 62.0008 181.234 63.9338V74.9338C181.234 76.8668 179.667 78.4338 177.734 78.4338H166.734C164.801 78.4338 163.234 76.8668 163.234 74.9338V63.9338C163.234 62.0008 164.801 60.4338 166.734 60.4338Z" stroke="black" stroke-width="3"/>
</svg>
