<svg width="206" height="216" viewBox="0 0 206 216" fill="none" xmlns="http://www.w3.org/2000/svg">
<path d="M198.734 183.934H44.7344L43.7344 130.934L49.7344 113.934V49.9338L56.2344 46.4338H188.234L193.734 48.1585V112.934L198.734 124.934V183.934Z" fill="#F3F5DD"/>
<path d="M44.2344 182.434V143.934H199.734V180.934L195.234 185.434H49.2344L44.2344 182.434Z" fill="#220902"/>
<path d="M186.234 162.934H57.7344L43.7344 213.934H199.734L186.234 162.934Z" fill="#F3F5DD"/>
<rect x="156.734" y="97.9338" width="11" height="11" rx="5" fill="#BD3817"/>
<circle cx="74.2344" cy="96.4338" r="11.5" fill="#63160C"/>
<path d="M175.734 38.9338L190.234 46.9338H54.2344L69.7344 38.9338H137.234L144.234 33.9338H167.734L175.734 38.9338Z" fill="#220902"/>
<ellipse cx="122.734" cy="79.9338" rx="24" ry="27" fill="#220902"/>
<circle cx="122.734" cy="82.9338" r="25" fill="#F3F5DD"/>
<circle cx="122.734" cy="82.9338" r="19" fill="#220902"/>
<rect x="156.734" y="54.9338" width="29" height="29" rx="5" fill="#220902"/>
<path d="M165.734 60.4338H176.734C178.667 60.4338 180.234 62.0008 180.234 63.9338V74.9338C180.234 76.8668 178.667 78.4338 176.734 78.4338H165.734C163.801 78.4338 162.234 76.8668 162.234 74.9338V63.9338C162.234 62.0008 163.801 60.4338 165.734 60.4338Z" stroke="black" stroke-width="3"/>
<path d="M160.734 63.9338C160.734 61.1724 162.973 58.9338 165.734 58.9338H176.734C179.496 58.9338 181.734 61.1724 181.734 63.9338V74.9338C181.734 77.6952 179.496 79.9338 176.734 79.9338H165.734C162.973 79.9338 160.734 77.6952 160.734 74.9338V63.9338Z" fill="#F3F5DD"/>
<path d="M65.7344 195.934L72.7344 162.934H169.734L177.234 195.934H65.7344Z" fill="#F4AC36"/>
<path d="M108.734 135.934L111.484 114.934H113.734V135.934H108.734Z" fill="#F4AC36"/>
<path d="M135.734 135.934L132.984 114.934H130.734V135.934H135.734Z" fill="#63160C"/>
<rect x="111.734" y="137.934" width="33" height="7" transform="rotate(-90 111.734 137.934)" fill="#F4AC36"/>
<rect x="118.734" y="137.934" width="33" height="7" transform="rotate(-90 118.734 137.934)" fill="#BD3817"/>
<rect x="125.734" y="137.934" width="33" height="7" transform="rotate(-90 125.734 137.934)" fill="#63160C"/>
<path d="M117.734 135.934L118.834 114.934H119.734V135.934H117.734Z" fill="#BD3817"/>
<path d="M126.734 135.934L125.634 114.934H124.734V135.934H126.734Z" fill="#BD3817"/>
<rect x="108.734" y="144.934" width="9" height="9" transform="rotate(-90 108.734 144.934)" fill="#F4AC36"/>
<rect x="117.734" y="144.934" width="9" height="9" transform="rotate(-90 117.734 144.934)" fill="#BD3817"/>
<rect x="126.734" y="144.934" width="9" height="9" transform="rotate(-90 126.734 144.934)" fill="#63160C"/>
<rect x="166.734" y="88.9338" width="20" height="9" rx="4.5" fill="#F4AC36"/>
<circle cx="74.2344" cy="96.4338" r="10" stroke="black" stroke-width="3"/>
<path d="M145.734 76.9338C145.734 63.6789 135.437 52.9338 122.734 52.9338C110.032 52.9338 99.7344 63.6789 99.7344 76.9338" stroke="black" stroke-width="3" stroke-linecap="round"/>
<rect x="168.234" y="90.4338" width="17" height="6" rx="3" stroke="black" stroke-width="3"/>
<path d="M199.734 131.934L199.281 179.981C199.255 182.724 197.024 184.934 194.281 184.934H191.734" stroke="black" stroke-width="3" stroke-linecap="round"/>
<path d="M194.145 113.934H49.3269L43.9023 130.366C42.8344 133.601 45.2436 136.934 48.6503 136.934H194.819C198.226 136.934 200.635 133.602 199.567 130.367L194.145 113.934Z" stroke="black" stroke-width="3"/>
<path d="M197.859 136.934H45.6094C42.6834 139.906 44.7891 144.934 48.96 144.934H194.509C198.68 144.934 200.785 139.906 197.859 136.934Z" stroke="black" stroke-width="3"/>
<path d="M43.7344 131.934L44.1877 179.981C44.2135 182.724 46.4444 184.934 49.1874 184.934H51.7344" stroke="black" stroke-width="3" stroke-linecap="round"/>
<rect x="52.2344" y="151.434" width="139" height="11" rx="3.5" stroke="black" stroke-width="3"/>
<path d="M57.7344 163.934L44.2344 213.934H199.234L186.234 163.934" stroke="black" stroke-width="3" stroke-linecap="round"/>
<path d="M72.8066 163.934L65.7344 195.934H176.734L169.703 163.934" stroke="black" stroke-width="3" stroke-linecap="round"/>
<path d="M49.7344 112.934V51.9338C49.7344 49.1724 51.973 46.9338 54.7344 46.9338L188.734 46.9338C191.496 46.9338 193.734 49.1724 193.734 51.9338V112.934" stroke="black" stroke-width="3" stroke-linecap="round"/>
<path d="M54.2344 46.9338L61.2707 42.556C65.0758 40.1885 69.4678 38.9338 73.9492 38.9338H172.005C177.707 38.9338 183.222 40.9636 187.563 44.6598L190.234 46.9338" stroke="black" stroke-width="3" stroke-linecap="round"/>
<path d="M176.734 38.9338V38.9338C173.533 35.7323 169.191 33.9338 164.663 33.9338H148.805C144.278 33.9338 139.936 35.7323 136.734 38.9338V38.9338" stroke="black" stroke-width="3" stroke-linecap="round"/>
<rect x="157.234" y="55.4338" width="28" height="28" rx="3.5" stroke="black" stroke-width="3"/>
<rect x="158.234" y="99.4338" width="8" height="8" rx="3.5" stroke="black" stroke-width="3"/>
<circle cx="122.734" cy="82.9338" r="23.5" stroke="black" stroke-width="3"/>
<circle cx="122.734" cy="82.9338" r="17.5" stroke="black" stroke-width="3"/>
<path d="M131.527 85.1459C132.237 79.6688 128.372 74.6536 122.895 73.9441" stroke="black" stroke-width="3" stroke-linecap="round"/>
<path d="M112.942 80.7216C112.232 86.1987 116.097 91.2139 121.574 91.9235" stroke="black" stroke-width="3" stroke-linecap="round"/>
<path d="M165.734 60.4338H176.734C178.667 60.4338 180.234 62.0008 180.234 63.9338V74.9338C180.234 76.8668 178.667 78.4338 176.734 78.4338H165.734C163.801 78.4338 162.234 76.8668 162.234 74.9338V63.9338C162.234 62.0008 163.801 60.4338 165.734 60.4338Z" stroke="black" stroke-width="3"/>
<path d="M94.1975 63.2018L92.6377 64.7512L94.6499 65.6383L118.392 76.1015L87.4018 78.9978L86.0559 79.1232L86.0416 80.4758L85.7559 108.116L70.9497 87.8726L69.9552 86.5119L68.7193 87.6576L44.7031 109.928L56.6221 83.4575L57.6308 81.2166L55.1761 81.3431L26.1845 82.8503L55.6489 68.5463L57.1649 67.81L56.2575 66.3898L42.7615 45.2495L68.6239 55.0077L69.8896 55.4849L70.4945 54.2762L84.4316 26.4454L85.5731 52.3662L85.6701 54.5632L87.6797 53.6715L116.773 40.7677L94.1975 63.2018Z" fill="#F4AC36" stroke="#F3F5DD" stroke-width="3"/>
</svg>
