<svg width="298" height="281" viewBox="0 0 298 281" fill="none" xmlns="http://www.w3.org/2000/svg">
<rect x="70.9999" y="53" width="156.667" height="201.429" fill="#F3F5DD"/>
<rect x="81.5638" y="64.0717" width="134.392" height="134.139" fill="#F4AC36"/>
<path d="M70.9999 53L70.9999 254.429" stroke="#220902" stroke-width="3" stroke-linecap="round"/>
<path d="M227.667 53L227.667 254.429" stroke="#220902" stroke-width="3" stroke-linecap="round"/>
<path d="M70.9999 53L227.667 53" stroke="#220902" stroke-width="3" stroke-linecap="round"/>
<path d="M82.1903 64.1905L216.476 64.1905" stroke="#220902" stroke-width="3" stroke-linecap="round"/>
<path d="M82.1903 198.476L216.476 198.476" stroke="#220902" stroke-width="3" stroke-linecap="round"/>
<path d="M82.1903 64.1905L82.1903 198.476" stroke="#220902" stroke-width="3" stroke-linecap="round"/>
<path d="M216.476 64.1905L216.476 198.476" stroke="#220902" stroke-width="3" stroke-linecap="round"/>
<path d="M70.9999 254.429L227.667 254.429" stroke="#220902" stroke-width="3" stroke-linecap="round"/>
<path d="M248.169 72.4832L191.258 129.036L249.539 154.722L175.77 161.614L175.103 226.172L140.026 178.213L80.9136 233.029L110.942 166.334L37.897 170.13L110.418 134.921L78.4456 84.8398L138.85 107.63L172.026 41.3827L174.828 105.011L248.169 72.4832Z" fill="#BD3817"/>
</svg>
