<svg width="137" height="171" viewBox="0 0 137 171" fill="none" xmlns="http://www.w3.org/2000/svg">
<path d="M102.655 163.454C102.655 166.391 100.231 168.794 97.2682 168.794H16.4731C13.5106 168.794 11.0868 166.391 11.0868 163.454V40.6428C11.0868 37.706 13.5106 35.3032 16.4731 35.3032H97.2682C100.231 35.3032 102.655 37.706 102.655 40.6428V163.454Z" fill="#F4AC36"/>
<path d="M134.648 163.454C134.648 166.391 132.249 168.794 129.316 168.794H102.655V35.3032H129.316C132.249 35.3032 134.648 37.706 134.648 40.6428V163.454Z" fill="#BD3817"/>
<path d="M128.856 171H16.8788C12.3463 171 8.88037 167.525 8.88037 162.98V40.0131C8.88037 35.4687 12.3463 31.9935 16.8788 31.9935H128.856C133.389 31.9935 136.855 35.4687 136.855 40.0131V162.98C136.855 167.525 133.389 171 128.856 171ZM16.8788 37.3399C15.2791 37.3399 14.2126 38.4092 14.2126 40.0131V162.98C14.2126 164.584 15.2791 165.654 16.8788 165.654H128.856C130.456 165.654 131.522 164.584 131.522 162.98V40.0131C131.522 38.4092 130.456 37.3399 128.856 37.3399H16.8788Z" fill="#220902"/>
<path d="M97.296 171H16.9182C12.3634 171 8.88037 167.525 8.88037 162.98V40.0131C8.88037 35.4687 12.3634 31.9935 16.9182 31.9935H97.296C101.851 31.9935 105.334 35.4687 105.334 40.0131V162.98C105.334 167.525 101.851 171 97.296 171ZM16.9182 37.3399C15.3106 37.3399 14.2389 38.4092 14.2389 40.0131V162.98C14.2389 164.584 15.3106 165.654 16.9182 165.654H97.296C98.9036 165.654 99.9753 164.584 99.9753 162.98V40.0131C99.9753 38.4092 98.9036 37.3399 97.296 37.3399H16.9182ZM116.051 34.6667H121.409V149.614H116.051V34.6667Z" fill="#220902"/>
<path d="M101.787 169.897L98.0389 166.169L118.919 145.398L136.855 166.169L132.571 169.897L118.384 153.386L101.787 169.897ZM91.8819 32.2218H86.528C86.528 17.3092 74.4818 5.32592 59.7586 5.32592C45.0354 5.32592 32.9891 17.3092 32.9891 32.2218H27.6353C27.6353 14.38 42.0908 0 59.7586 0C77.4264 0 91.8819 14.38 91.8819 32.2218Z" fill="#220902"/>
<path d="M118.1 31.9935H112.768C112.768 17.1866 100.77 5.28819 86.1062 5.28819C71.4425 5.28819 59.4449 17.1866 59.4449 31.9935H54.1127C54.1127 14.2781 68.5098 0 86.1062 0C103.703 0 118.1 14.2781 118.1 31.9935Z" fill="#220902"/>
<path d="M86.5726 66.4016L71.3504 93.9907L96.1504 97.2519L69.1014 107.978L75.9632 132.388L57.456 118.174L41.2124 145.351L45.1832 116.9L18.0662 126.38L41.5249 105.117L23.954 89.7604L49.2357 91.6959L54.4422 63.0675L62.5093 86.7444L86.5726 66.4016Z" fill="#BD3817"/>
</svg>
