<?xml version="1.0" encoding="iso-8859-1"?>
<!-- Uploaded to: SVG Repo, www.svgrepo.com, Generator: SVG Repo Mixer Tools -->
<!DOCTYPE svg PUBLIC "-//W3C//DTD SVG 1.1//EN" "http://www.w3.org/Graphics/SVG/1.1/DTD/svg11.dtd">
<svg fill="#000000" height="800px" width="800px" version="1.1" id="Capa_1" xmlns="http://www.w3.org/2000/svg" xmlns:xlink="http://www.w3.org/1999/xlink" 
	 viewBox="0 0 202.32 202.32" xml:space="preserve">
<path d="M170.959,189.77c-0.227,0-0.457-0.031-0.686-0.097L58.142,157.76c-0.638-0.182-1.177-0.608-1.5-1.188
	c-0.322-0.58-0.401-1.264-0.22-1.901l4.529-15.914l-33.898,7.919c-0.646,0.152-1.325,0.039-1.888-0.311
	c-0.563-0.351-0.964-0.91-1.115-1.556L0.065,42.138c-0.15-0.646-0.039-1.324,0.312-1.888c0.35-0.563,0.909-0.964,1.555-1.115
	l113.528-26.52c1.339-0.313,2.688,0.521,3.003,1.866l11.417,48.874l70.624,20.101c1.328,0.378,2.098,1.761,1.72,3.089
	l-28.861,101.408C173.05,189.052,172.048,189.77,170.959,189.77z M61.915,153.636l107.323,30.544l27.492-96.6l-69.387-19.748
	c-0.082-0.015-0.164-0.033-0.245-0.057L89.405,57.047L61.915,153.636z M5.503,43.436l22.848,97.803l34.117-7.971l5.416-19.028
	L30.2,123.042c-1.335,0.317-2.688-0.521-3.003-1.866L10.459,49.524c-0.15-0.646-0.039-1.324,0.311-1.888
	c0.351-0.563,0.91-0.964,1.556-1.115l97.089-22.68c0.645-0.15,1.324-0.04,1.888,0.312c0.563,0.35,0.964,0.909,1.115,1.555
	l8.177,35.005l3.785,1.078l-10.217-43.737L5.503,43.436z M15.896,50.822l15.602,66.783l37.951-8.865l15.789-55.478
	c0.182-0.638,0.608-1.177,1.188-1.5c0.397-0.221,0.848-0.326,1.29-0.314c0.221,0.002,0.441,0.033,0.657,0.095l26.721,7.604
	l-6.978-29.868L15.896,50.822z M168.897,166.013c-0.229,0-0.46-0.031-0.685-0.096l-95.895-27.293
	c-1.328-0.378-2.098-1.761-1.72-3.089l20.143-70.771c0.182-0.638,0.608-1.177,1.188-1.5c0.581-0.323,1.264-0.402,1.901-0.22
	l95.894,27.293c1.328,0.378,2.098,1.761,1.72,3.089l-20.142,70.771c-0.182,0.638-0.608,1.177-1.188,1.5
	C169.738,165.907,169.319,166.013,168.897,166.013z M76.092,134.5l91.086,25.924l18.772-65.963L94.865,68.537L76.092,134.5z"/>
</svg>